<?xml version="1.0" encoding="UTF-8"?>
<svg id="Layer_2" data-name="Layer 2" xmlns="http://www.w3.org/2000/svg" viewBox="0 0 509.74 172.32">
  <defs>
    <style>
      .cls-1, .cls-2 {
        font-family: Montserrat-Medium, Montserrat;
        font-weight: 500;
      }

      .cls-1, .cls-3 {
        font-size: 67.5px;
      }

      .cls-2 {
        font-size: 90px;
      }

      .cls-4, .cls-5 {
        fill: #d5ecd4;
      }

      .cls-3 {
        font-family: Montserrat-Bold, Montserrat;
        font-weight: 700;
      }

      .cls-5 {
        fill-rule: evenodd;
      }
    </style>
  </defs>
  <g id="Logo">
    <text class="cls-4" transform="translate(116.96 130.41)"><tspan class="cls-3" x="0" y="0">USE </tspan><tspan class="cls-2" x="160.65" y="0">IT</tspan><tspan class="cls-1" x="241.38" y="0"> </tspan><tspan class="cls-3" x="259.54" y="0">ALL</tspan></text>
    <g>
      <path class="cls-5" d="M44.95,172.32h0C27.67,156.19-1.94,119.94.1,89.98c1.6-21.63,18.44-39,39.89-41.31v32.97c-10.19,1.95-15.07,10.1-15.07,21.81,0,12.41,8.07,24.38,17.55,26.15v-6.38c-1.68-5.41-7.8-8.42-7.18-12.5l1.6-15.51c.09-.62.53-1.15,1.15-1.15h0c.62,0,1.15.53,1.15,1.15v13.3c0,.53.44.97.97.97.44,0,.89-.44.89-.97v-16.84c0-.8.62-1.51,1.42-1.51h0c.8,0,1.51.71,1.51,1.51v16.84c0,.53.44.97.89.97h.09c.53,0,.97-.44.97-.97v-16.84c0-.8.62-1.51,1.42-1.51h0c.8,0,1.42.71,1.42,1.51v16.84c0,.53.44.97.97.97s.89-.44.89-.97v-13.3c0-.62.53-1.15,1.15-1.15h0c.71,0,1.15.53,1.15,1.15l1.68,15.51s-5.58,7.09-7.27,12.5v6.38c9.48-1.77,17.64-13.74,17.64-26.15,0-11.7-4.96-19.86-15.07-21.81v-32.97c21.36,2.3,38.29,19.68,39.8,41.31,2.04,29.96-27.57,66.21-44.76,82.35h0Z"/>
      <path class="cls-5" d="M77.23,4.7c-8.6,11.79-39.44,6.83-27.48,35.81,2.39-8.6,4.61-12.59,11.08-14.8-6.65,4.34-7.36,8.69-6.91,16.66,21.27,1.33,33.59-18.17,23.31-37.67Z"/>
      <path class="cls-5" d="M7.9,0c-11.52,21.98,2.3,43.79,26.15,42.37.62-8.95-.27-13.83-7.71-18.79,7.27,2.48,9.75,7,12.41,16.75C52.22,7.71,17.56,13.3,7.9,0Z"/>
    </g>
  </g>
</svg>